<svg width="740" height="545" viewBox="0 0 740 545" fill="none" xmlns="http://www.w3.org/2000/svg">
<path d="M596.661 542.06C596.061 542.06 595.537 541.952 595.089 541.736C594.649 541.512 594.309 541.2 594.069 540.8C593.837 540.4 593.721 539.924 593.721 539.372C593.721 538.652 593.873 538.012 594.177 537.452C594.481 536.892 594.897 536.452 595.425 536.132C595.953 535.804 596.549 535.64 597.213 535.64C597.773 535.64 598.257 535.748 598.665 535.964C599.073 536.172 599.389 536.476 599.613 536.876C599.845 537.276 599.961 537.756 599.961 538.316C599.961 538.444 599.953 538.576 599.937 538.712C599.921 538.84 599.901 538.964 599.877 539.084H594.345L594.453 538.448H599.481L599.133 538.688C599.213 538.184 599.177 537.76 599.025 537.416C598.873 537.072 598.637 536.812 598.317 536.636C598.005 536.452 597.629 536.36 597.189 536.36C596.677 536.36 596.221 536.488 595.821 536.744C595.421 536.992 595.109 537.34 594.885 537.788C594.661 538.228 594.549 538.744 594.549 539.336C594.549 539.968 594.729 540.456 595.089 540.8C595.457 541.136 596.005 541.304 596.733 541.304C597.157 541.304 597.549 541.236 597.909 541.1C598.269 540.956 598.565 540.76 598.797 540.512L599.181 541.124C598.885 541.42 598.513 541.652 598.065 541.82C597.625 541.98 597.157 542.06 596.661 542.06ZM603.879 542.06C603.279 542.06 602.759 541.952 602.319 541.736C601.887 541.512 601.551 541.2 601.311 540.8C601.079 540.4 600.963 539.928 600.963 539.384C600.963 538.664 601.119 538.024 601.431 537.464C601.743 536.896 602.175 536.452 602.727 536.132C603.287 535.804 603.923 535.64 604.635 535.64C605.219 535.64 605.719 535.748 606.135 535.964C606.559 536.172 606.887 536.484 607.119 536.9L606.399 537.32C606.223 537 605.979 536.764 605.667 536.612C605.363 536.46 604.995 536.384 604.563 536.384C604.035 536.384 603.563 536.512 603.147 536.768C602.731 537.024 602.403 537.376 602.163 537.824C601.931 538.264 601.815 538.772 601.815 539.348C601.815 539.964 601.995 540.444 602.355 540.788C602.723 541.132 603.243 541.304 603.915 541.304C604.323 541.304 604.699 541.228 605.043 541.076C605.395 540.916 605.683 540.688 605.907 540.392L606.519 540.86C606.247 541.236 605.875 541.532 605.403 541.748C604.931 541.956 604.423 542.06 603.879 542.06ZM610.487 542.06C609.903 542.06 609.395 541.952 608.963 541.736C608.539 541.512 608.207 541.2 607.967 540.8C607.735 540.4 607.619 539.928 607.619 539.384C607.619 538.664 607.775 538.024 608.087 537.464C608.399 536.896 608.831 536.452 609.383 536.132C609.935 535.804 610.563 535.64 611.267 535.64C611.851 535.64 612.355 535.748 612.779 535.964C613.211 536.18 613.543 536.488 613.775 536.888C614.015 537.288 614.135 537.76 614.135 538.304C614.135 539.024 613.979 539.668 613.667 540.236C613.355 540.796 612.923 541.24 612.371 541.568C611.827 541.896 611.199 542.06 610.487 542.06ZM610.547 541.304C611.075 541.304 611.543 541.18 611.951 540.932C612.367 540.676 612.691 540.324 612.923 539.876C613.163 539.428 613.283 538.92 613.283 538.352C613.283 537.728 613.099 537.244 612.731 536.9C612.371 536.556 611.863 536.384 611.207 536.384C610.687 536.384 610.219 536.512 609.803 536.768C609.387 537.024 609.059 537.376 608.819 537.824C608.587 538.264 608.471 538.772 608.471 539.348C608.471 539.964 608.651 540.444 609.011 540.788C609.379 541.132 609.891 541.304 610.547 541.304ZM619.535 535.64C620.103 535.64 620.567 535.752 620.927 535.976C621.295 536.192 621.547 536.508 621.683 536.924C621.827 537.34 621.839 537.836 621.719 538.412L620.999 542H620.147L620.867 538.4C620.995 537.776 620.927 537.288 620.663 536.936C620.407 536.584 619.951 536.408 619.295 536.408C618.623 536.408 618.063 536.592 617.615 536.96C617.175 537.328 616.879 537.88 616.727 538.616L616.055 542H615.203L616.451 535.7H617.267L616.907 537.512L616.727 537.2C617.031 536.656 617.423 536.26 617.903 536.012C618.391 535.764 618.935 535.64 619.535 535.64ZM626.12 542.06C625.536 542.06 625.028 541.952 624.596 541.736C624.172 541.512 623.84 541.2 623.6 540.8C623.368 540.4 623.252 539.928 623.252 539.384C623.252 538.664 623.408 538.024 623.72 537.464C624.032 536.896 624.464 536.452 625.016 536.132C625.568 535.804 626.196 535.64 626.9 535.64C627.484 535.64 627.988 535.748 628.412 535.964C628.844 536.18 629.176 536.488 629.408 536.888C629.648 537.288 629.768 537.76 629.768 538.304C629.768 539.024 629.612 539.668 629.3 540.236C628.988 540.796 628.556 541.24 628.004 541.568C627.46 541.896 626.832 542.06 626.12 542.06ZM626.18 541.304C626.708 541.304 627.176 541.18 627.584 540.932C628 540.676 628.324 540.324 628.556 539.876C628.796 539.428 628.916 538.92 628.916 538.352C628.916 537.728 628.732 537.244 628.364 536.9C628.004 536.556 627.496 536.384 626.84 536.384C626.32 536.384 625.852 536.512 625.436 536.768C625.02 537.024 624.692 537.376 624.452 537.824C624.22 538.264 624.104 538.772 624.104 539.348C624.104 539.964 624.284 540.444 624.644 540.788C625.012 541.132 625.524 541.304 626.18 541.304ZM639.811 535.64C640.379 535.64 640.839 535.752 641.191 535.976C641.551 536.192 641.799 536.508 641.935 536.924C642.071 537.34 642.079 537.836 641.959 538.412L641.239 542H640.387L641.107 538.4C641.235 537.776 641.175 537.288 640.927 536.936C640.687 536.584 640.247 536.408 639.607 536.408C638.975 536.408 638.443 536.584 638.011 536.936C637.587 537.288 637.303 537.816 637.159 538.52L636.463 542H635.611L636.331 538.4C636.459 537.776 636.399 537.288 636.151 536.936C635.903 536.584 635.463 536.408 634.831 536.408C634.183 536.408 633.647 536.592 633.223 536.96C632.799 537.328 632.511 537.88 632.359 538.616L631.687 542H630.835L632.083 535.7H632.899L632.539 537.512L632.359 537.2C632.663 536.656 633.047 536.26 633.511 536.012C633.975 535.764 634.499 535.64 635.083 535.64C635.523 535.64 635.899 535.716 636.211 535.868C636.531 536.012 636.779 536.228 636.955 536.516C637.139 536.796 637.239 537.132 637.255 537.524L636.811 537.428C637.123 536.828 637.535 536.38 638.047 536.084C638.567 535.788 639.155 535.64 639.811 535.64ZM643.562 542L644.81 535.7H645.662L644.414 542H643.562ZM645.602 534.308C645.434 534.308 645.294 534.252 645.182 534.14C645.078 534.028 645.026 533.896 645.026 533.744C645.026 533.568 645.086 533.416 645.206 533.288C645.334 533.16 645.494 533.096 645.686 533.096C645.854 533.096 645.994 533.148 646.106 533.252C646.218 533.356 646.274 533.488 646.274 533.648C646.274 533.84 646.21 534 646.082 534.128C645.954 534.248 645.794 534.308 645.602 534.308ZM649.641 542.06C649.041 542.06 648.521 541.952 648.081 541.736C647.649 541.512 647.313 541.2 647.073 540.8C646.841 540.4 646.725 539.928 646.725 539.384C646.725 538.664 646.881 538.024 647.193 537.464C647.505 536.896 647.937 536.452 648.489 536.132C649.049 535.804 649.685 535.64 650.397 535.64C650.981 535.64 651.481 535.748 651.897 535.964C652.321 536.172 652.649 536.484 652.881 536.9L652.161 537.32C651.985 537 651.741 536.764 651.429 536.612C651.125 536.46 650.757 536.384 650.325 536.384C649.797 536.384 649.325 536.512 648.909 536.768C648.493 537.024 648.165 537.376 647.925 537.824C647.693 538.264 647.577 538.772 647.577 539.348C647.577 539.964 647.757 540.444 648.117 540.788C648.485 541.132 649.005 541.304 649.677 541.304C650.085 541.304 650.461 541.228 650.805 541.076C651.157 540.916 651.445 540.688 651.669 540.392L652.281 540.86C652.009 541.236 651.637 541.532 651.165 541.748C650.693 541.956 650.185 542.06 649.641 542.06ZM659.375 542.06C658.839 542.06 658.363 541.952 657.947 541.736C657.531 541.52 657.207 541.212 656.975 540.812C656.743 540.412 656.627 539.936 656.627 539.384C656.627 538.848 656.715 538.352 656.891 537.896C657.067 537.44 657.315 537.044 657.635 536.708C657.955 536.364 658.331 536.1 658.763 535.916C659.203 535.732 659.679 535.64 660.191 535.64C660.743 535.64 661.211 535.74 661.595 535.94C661.979 536.132 662.275 536.416 662.483 536.792C662.691 537.16 662.795 537.608 662.795 538.136C662.795 538.704 662.715 539.228 662.555 539.708C662.403 540.188 662.175 540.604 661.871 540.956C661.567 541.308 661.203 541.58 660.779 541.772C660.363 541.964 659.895 542.06 659.375 542.06ZM659.555 541.304C660.083 541.304 660.551 541.18 660.959 540.932C661.375 540.676 661.699 540.324 661.931 539.876C662.171 539.428 662.291 538.92 662.291 538.352C662.291 537.728 662.107 537.244 661.739 536.9C661.379 536.556 660.871 536.384 660.215 536.384C659.695 536.384 659.227 536.512 658.811 536.768C658.395 537.024 658.067 537.376 657.827 537.824C657.595 538.264 657.479 538.772 657.479 539.348C657.479 539.964 657.659 540.444 658.019 540.788C658.387 541.132 658.899 541.304 659.555 541.304ZM661.631 542L661.991 540.188L662.351 538.916L662.471 537.596L663.371 533.096H664.223L662.447 542H661.631ZM667.7 542.06C667.1 542.06 666.576 541.952 666.128 541.736C665.688 541.512 665.348 541.2 665.108 540.8C664.876 540.4 664.76 539.924 664.76 539.372C664.76 538.652 664.912 538.012 665.216 537.452C665.52 536.892 665.936 536.452 666.464 536.132C666.992 535.804 667.588 535.64 668.252 535.64C668.812 535.64 669.296 535.748 669.704 535.964C670.112 536.172 670.428 536.476 670.652 536.876C670.884 537.276 671 537.756 671 538.316C671 538.444 670.992 538.576 670.976 538.712C670.96 538.84 670.94 538.964 670.916 539.084H665.384L665.492 538.448H670.52L670.172 538.688C670.252 538.184 670.216 537.76 670.064 537.416C669.912 537.072 669.676 536.812 669.356 536.636C669.044 536.452 668.668 536.36 668.228 536.36C667.716 536.36 667.26 536.488 666.86 536.744C666.46 536.992 666.148 537.34 665.924 537.788C665.7 538.228 665.588 538.744 665.588 539.336C665.588 539.968 665.768 540.456 666.128 540.8C666.496 541.136 667.044 541.304 667.772 541.304C668.196 541.304 668.588 541.236 668.948 541.1C669.308 540.956 669.604 540.76 669.836 540.512L670.22 541.124C669.924 541.42 669.552 541.652 669.104 541.82C668.664 541.98 668.196 542.06 667.7 542.06ZM673.577 542L672.017 535.7H672.869L674.285 541.544H673.877L677.621 535.7H678.509L674.441 542H673.577ZM681.153 542.06C680.553 542.06 680.029 541.952 679.581 541.736C679.141 541.512 678.801 541.2 678.561 540.8C678.329 540.4 678.213 539.924 678.213 539.372C678.213 538.652 678.365 538.012 678.669 537.452C678.973 536.892 679.389 536.452 679.917 536.132C680.445 535.804 681.041 535.64 681.705 535.64C682.265 535.64 682.749 535.748 683.157 535.964C683.565 536.172 683.881 536.476 684.105 536.876C684.337 537.276 684.453 537.756 684.453 538.316C684.453 538.444 684.445 538.576 684.429 538.712C684.413 538.84 684.393 538.964 684.369 539.084H678.837L678.945 538.448H683.973L683.625 538.688C683.705 538.184 683.669 537.76 683.517 537.416C683.365 537.072 683.129 536.812 682.809 536.636C682.497 536.452 682.121 536.36 681.681 536.36C681.169 536.36 680.713 536.488 680.313 536.744C679.913 536.992 679.601 537.34 679.377 537.788C679.153 538.228 679.041 538.744 679.041 539.336C679.041 539.968 679.221 540.456 679.581 540.8C679.949 541.136 680.497 541.304 681.225 541.304C681.649 541.304 682.041 541.236 682.401 541.1C682.761 540.956 683.057 540.76 683.289 540.512L683.673 541.124C683.377 541.42 683.005 541.652 682.557 541.82C682.117 541.98 681.649 542.06 681.153 542.06ZM685.515 542L687.291 533.096H688.143L686.367 542H685.515ZM691.546 542.06C690.962 542.06 690.454 541.952 690.022 541.736C689.598 541.512 689.266 541.2 689.026 540.8C688.794 540.4 688.678 539.928 688.678 539.384C688.678 538.664 688.834 538.024 689.146 537.464C689.458 536.896 689.89 536.452 690.442 536.132C690.994 535.804 691.622 535.64 692.326 535.64C692.91 535.64 693.414 535.748 693.838 535.964C694.27 536.18 694.602 536.488 694.834 536.888C695.074 537.288 695.194 537.76 695.194 538.304C695.194 539.024 695.038 539.668 694.726 540.236C694.414 540.796 693.982 541.24 693.43 541.568C692.886 541.896 692.258 542.06 691.546 542.06ZM691.606 541.304C692.134 541.304 692.602 541.18 693.01 540.932C693.426 540.676 693.75 540.324 693.982 539.876C694.222 539.428 694.342 538.92 694.342 538.352C694.342 537.728 694.158 537.244 693.79 536.9C693.43 536.556 692.922 536.384 692.266 536.384C691.746 536.384 691.278 536.512 690.862 536.768C690.446 537.024 690.118 537.376 689.878 537.824C689.646 538.264 689.53 538.772 689.53 539.348C689.53 539.964 689.71 540.444 690.07 540.788C690.438 541.132 690.95 541.304 691.606 541.304ZM699.765 542.06C699.221 542.06 698.753 541.964 698.361 541.772C697.977 541.572 697.681 541.288 697.473 540.92C697.273 540.544 697.169 540.092 697.161 539.564C697.161 538.788 697.301 538.108 697.581 537.524C697.861 536.932 698.257 536.472 698.769 536.144C699.281 535.808 699.885 535.64 700.581 535.64C701.125 535.64 701.601 535.748 702.009 535.964C702.425 536.172 702.749 536.476 702.981 536.876C703.221 537.276 703.341 537.752 703.341 538.304C703.341 538.848 703.253 539.348 703.077 539.804C702.901 540.26 702.649 540.656 702.321 540.992C702.001 541.328 701.625 541.592 701.193 541.784C700.761 541.968 700.285 542.06 699.765 542.06ZM695.793 544.328L697.509 535.7H698.325L697.965 537.512L697.617 538.772L697.485 540.092L696.645 544.328H695.793ZM699.753 541.304C700.281 541.304 700.749 541.18 701.157 540.932C701.565 540.676 701.885 540.324 702.117 539.876C702.357 539.428 702.477 538.92 702.477 538.352C702.477 537.728 702.297 537.244 701.937 536.9C701.577 536.556 701.065 536.384 700.401 536.384C699.881 536.384 699.413 536.512 698.997 536.768C698.589 537.024 698.265 537.376 698.025 537.824C697.793 538.264 697.677 538.772 697.677 539.348C697.677 539.964 697.857 540.444 698.217 540.788C698.577 541.132 699.089 541.304 699.753 541.304ZM713.37 535.64C713.938 535.64 714.398 535.752 714.75 535.976C715.11 536.192 715.358 536.508 715.494 536.924C715.63 537.34 715.638 537.836 715.518 538.412L714.798 542H713.946L714.666 538.4C714.794 537.776 714.734 537.288 714.486 536.936C714.246 536.584 713.806 536.408 713.166 536.408C712.534 536.408 712.002 536.584 711.57 536.936C711.146 537.288 710.862 537.816 710.718 538.52L710.022 542H709.17L709.89 538.4C710.018 537.776 709.958 537.288 709.71 536.936C709.462 536.584 709.022 536.408 708.39 536.408C707.742 536.408 707.206 536.592 706.782 536.96C706.358 537.328 706.07 537.88 705.918 538.616L705.246 542H704.394L705.642 535.7H706.458L706.098 537.512L705.918 537.2C706.222 536.656 706.606 536.26 707.07 536.012C707.534 535.764 708.058 535.64 708.642 535.64C709.082 535.64 709.458 535.716 709.77 535.868C710.09 536.012 710.338 536.228 710.514 536.516C710.698 536.796 710.798 537.132 710.814 537.524L710.37 537.428C710.682 536.828 711.094 536.38 711.606 536.084C712.126 535.788 712.714 535.64 713.37 535.64ZM720.001 542.06C719.401 542.06 718.877 541.952 718.429 541.736C717.989 541.512 717.649 541.2 717.409 540.8C717.177 540.4 717.061 539.924 717.061 539.372C717.061 538.652 717.213 538.012 717.517 537.452C717.821 536.892 718.237 536.452 718.765 536.132C719.293 535.804 719.889 535.64 720.553 535.64C721.113 535.64 721.597 535.748 722.005 535.964C722.413 536.172 722.729 536.476 722.953 536.876C723.185 537.276 723.301 537.756 723.301 538.316C723.301 538.444 723.293 538.576 723.277 538.712C723.261 538.84 723.241 538.964 723.217 539.084H717.685L717.793 538.448H722.821L722.473 538.688C722.553 538.184 722.517 537.76 722.365 537.416C722.213 537.072 721.977 536.812 721.657 536.636C721.345 536.452 720.969 536.36 720.529 536.36C720.017 536.36 719.561 536.488 719.161 536.744C718.761 536.992 718.449 537.34 718.225 537.788C718.001 538.228 717.889 538.744 717.889 539.336C717.889 539.968 718.069 540.456 718.429 540.8C718.797 541.136 719.345 541.304 720.073 541.304C720.497 541.304 720.889 541.236 721.249 541.1C721.609 540.956 721.905 540.76 722.137 540.512L722.521 541.124C722.225 541.42 721.853 541.652 721.405 541.82C720.965 541.98 720.497 542.06 720.001 542.06ZM728.695 535.64C729.263 535.64 729.727 535.752 730.087 535.976C730.455 536.192 730.707 536.508 730.843 536.924C730.987 537.34 730.999 537.836 730.879 538.412L730.159 542H729.307L730.027 538.4C730.155 537.776 730.087 537.288 729.823 536.936C729.567 536.584 729.111 536.408 728.455 536.408C727.783 536.408 727.223 536.592 726.775 536.96C726.335 537.328 726.039 537.88 725.887 538.616L725.215 542H724.363L725.611 535.7H726.427L726.067 537.512L725.887 537.2C726.191 536.656 726.583 536.26 727.063 536.012C727.551 535.764 728.095 535.64 728.695 535.64ZM734.476 542.06C734.116 542.06 733.808 541.984 733.552 541.832C733.296 541.672 733.116 541.448 733.012 541.16C732.916 540.872 732.908 540.528 732.988 540.128L734.14 534.308H734.992L733.84 540.092C733.76 540.484 733.788 540.788 733.924 541.004C734.068 541.22 734.328 541.328 734.704 541.328C734.88 541.328 735.052 541.304 735.22 541.256C735.388 541.2 735.54 541.116 735.676 541.004L735.88 541.652C735.68 541.804 735.456 541.912 735.208 541.976C734.96 542.032 734.716 542.06 734.476 542.06ZM732.604 536.408L732.736 535.7H736.636L736.492 536.408H732.604Z" fill="white"/>
<path d="M24.2159 12.356H28.6559L28.5119 13.112H24.0719L24.2159 12.356ZM23.5319 16.232H28.5839L28.4279 17H22.4999L24.1799 8.6H29.9399L29.7839 9.368H24.8999L23.5319 16.232ZM34.6792 10.64C35.2472 10.64 35.7112 10.752 36.0712 10.976C36.4392 11.192 36.6912 11.508 36.8272 11.924C36.9712 12.34 36.9832 12.836 36.8632 13.412L36.1432 17H35.2912L36.0112 13.4C36.1392 12.776 36.0712 12.288 35.8072 11.936C35.5512 11.584 35.0952 11.408 34.4392 11.408C33.7672 11.408 33.2072 11.592 32.7592 11.96C32.3192 12.328 32.0232 12.88 31.8712 13.616L31.1992 17H30.3472L31.5952 10.7H32.4112L32.0512 12.512L31.8712 12.2C32.1752 11.656 32.5672 11.26 33.0472 11.012C33.5352 10.764 34.0792 10.64 34.6792 10.64ZM40.4606 17.06C40.1006 17.06 39.7926 16.984 39.5366 16.832C39.2806 16.672 39.1006 16.448 38.9966 16.16C38.9006 15.872 38.8926 15.528 38.9726 15.128L40.1246 9.308H40.9766L39.8246 15.092C39.7446 15.484 39.7726 15.788 39.9086 16.004C40.0526 16.22 40.3126 16.328 40.6886 16.328C40.8646 16.328 41.0366 16.304 41.2046 16.256C41.3726 16.2 41.5246 16.116 41.6606 16.004L41.8646 16.652C41.6646 16.804 41.4406 16.912 41.1926 16.976C40.9446 17.032 40.7006 17.06 40.4606 17.06ZM38.5886 11.408L38.7206 10.7H42.6206L42.4766 11.408H38.5886ZM43.3316 17L44.5796 10.7H45.3956L45.0356 12.56L44.9396 12.236C45.2196 11.684 45.5876 11.28 46.0436 11.024C46.5076 10.768 47.0836 10.64 47.7716 10.64L47.6156 11.468C47.5756 11.468 47.5356 11.468 47.4956 11.468C47.4636 11.46 47.4236 11.456 47.3756 11.456C46.7036 11.456 46.1476 11.652 45.7076 12.044C45.2756 12.428 44.9796 13.012 44.8196 13.796L44.1836 17H43.3316ZM50.8756 17.06C50.2756 17.06 49.7516 16.952 49.3036 16.736C48.8636 16.512 48.5236 16.2 48.2836 15.8C48.0516 15.4 47.9356 14.924 47.9356 14.372C47.9356 13.652 48.0876 13.012 48.3916 12.452C48.6956 11.892 49.1116 11.452 49.6396 11.132C50.1676 10.804 50.7636 10.64 51.4276 10.64C51.9876 10.64 52.4716 10.748 52.8796 10.964C53.2876 11.172 53.6036 11.476 53.8276 11.876C54.0596 12.276 54.1756 12.756 54.1756 13.316C54.1756 13.444 54.1676 13.576 54.1516 13.712C54.1356 13.84 54.1156 13.964 54.0916 14.084H48.5596L48.6676 13.448H53.6956L53.3476 13.688C53.4276 13.184 53.3916 12.76 53.2396 12.416C53.0876 12.072 52.8516 11.812 52.5316 11.636C52.2196 11.452 51.8436 11.36 51.4036 11.36C50.8916 11.36 50.4356 11.488 50.0356 11.744C49.6356 11.992 49.3236 12.34 49.0996 12.788C48.8756 13.228 48.7636 13.744 48.7636 14.336C48.7636 14.968 48.9436 15.456 49.3036 15.8C49.6716 16.136 50.2196 16.304 50.9476 16.304C51.3716 16.304 51.7636 16.236 52.1236 16.1C52.4836 15.956 52.7796 15.76 53.0116 15.512L53.3956 16.124C53.0996 16.42 52.7276 16.652 52.2796 16.82C51.8396 16.98 51.3716 17.06 50.8756 17.06ZM58.7418 17.06C58.1978 17.06 57.7298 16.964 57.3378 16.772C56.9538 16.572 56.6578 16.288 56.4498 15.92C56.2498 15.544 56.1458 15.092 56.1378 14.564C56.1378 13.788 56.2778 13.108 56.5578 12.524C56.8378 11.932 57.2338 11.472 57.7458 11.144C58.2578 10.808 58.8618 10.64 59.5578 10.64C60.1018 10.64 60.5778 10.748 60.9858 10.964C61.4018 11.172 61.7258 11.476 61.9578 11.876C62.1978 12.276 62.3178 12.752 62.3178 13.304C62.3178 13.848 62.2298 14.348 62.0538 14.804C61.8778 15.26 61.6258 15.656 61.2978 15.992C60.9778 16.328 60.6018 16.592 60.1698 16.784C59.7378 16.968 59.2618 17.06 58.7418 17.06ZM54.7698 19.328L56.4858 10.7H57.3018L56.9418 12.512L56.5938 13.772L56.4618 15.092L55.6218 19.328H54.7698ZM58.7298 16.304C59.2578 16.304 59.7258 16.18 60.1338 15.932C60.5418 15.676 60.8618 15.324 61.0938 14.876C61.3338 14.428 61.4538 13.92 61.4538 13.352C61.4538 12.728 61.2738 12.244 60.9138 11.9C60.5538 11.556 60.0418 11.384 59.3778 11.384C58.8578 11.384 58.3898 11.512 57.9738 11.768C57.5658 12.024 57.2418 12.376 57.0018 12.824C56.7698 13.264 56.6538 13.772 56.6538 14.348C56.6538 14.964 56.8338 15.444 57.1938 15.788C57.5538 16.132 58.0658 16.304 58.7298 16.304ZM63.3706 17L64.6186 10.7H65.4346L65.0746 12.56L64.9786 12.236C65.2586 11.684 65.6266 11.28 66.0826 11.024C66.5466 10.768 67.1226 10.64 67.8106 10.64L67.6546 11.468C67.6146 11.468 67.5746 11.468 67.5346 11.468C67.5026 11.46 67.4626 11.456 67.4146 11.456C66.7426 11.456 66.1866 11.652 65.7466 12.044C65.3146 12.428 65.0186 13.012 64.8586 13.796L64.2226 17H63.3706ZM70.9147 17.06C70.3147 17.06 69.7907 16.952 69.3427 16.736C68.9027 16.512 68.5627 16.2 68.3227 15.8C68.0907 15.4 67.9747 14.924 67.9747 14.372C67.9747 13.652 68.1267 13.012 68.4307 12.452C68.7347 11.892 69.1507 11.452 69.6787 11.132C70.2067 10.804 70.8027 10.64 71.4667 10.64C72.0267 10.64 72.5107 10.748 72.9187 10.964C73.3267 11.172 73.6427 11.476 73.8667 11.876C74.0987 12.276 74.2147 12.756 74.2147 13.316C74.2147 13.444 74.2067 13.576 74.1907 13.712C74.1747 13.84 74.1547 13.964 74.1307 14.084H68.5987L68.7067 13.448H73.7347L73.3867 13.688C73.4667 13.184 73.4307 12.76 73.2787 12.416C73.1267 12.072 72.8907 11.812 72.5707 11.636C72.2587 11.452 71.8827 11.36 71.4427 11.36C70.9307 11.36 70.4747 11.488 70.0747 11.744C69.6747 11.992 69.3627 12.34 69.1387 12.788C68.9147 13.228 68.8027 13.744 68.8027 14.336C68.8027 14.968 68.9827 15.456 69.3427 15.8C69.7107 16.136 70.2587 16.304 70.9867 16.304C71.4107 16.304 71.8027 16.236 72.1627 16.1C72.5227 15.956 72.8187 15.76 73.0507 15.512L73.4347 16.124C73.1387 16.42 72.7667 16.652 72.3187 16.82C71.8787 16.98 71.4107 17.06 70.9147 17.06ZM79.6089 10.64C80.1769 10.64 80.6409 10.752 81.0009 10.976C81.3689 11.192 81.6209 11.508 81.7569 11.924C81.9009 12.34 81.9129 12.836 81.7929 13.412L81.0729 17H80.2209L80.9409 13.4C81.0689 12.776 81.0009 12.288 80.7369 11.936C80.4809 11.584 80.0249 11.408 79.3689 11.408C78.6969 11.408 78.1369 11.592 77.6889 11.96C77.2489 12.328 76.9529 12.88 76.8009 13.616L76.1289 17H75.2769L76.5249 10.7H77.3409L76.9809 12.512L76.8009 12.2C77.1049 11.656 77.4969 11.26 77.9769 11.012C78.4649 10.764 79.0089 10.64 79.6089 10.64ZM86.2663 17.06C85.6663 17.06 85.1423 16.952 84.6943 16.736C84.2543 16.512 83.9143 16.2 83.6743 15.8C83.4423 15.4 83.3263 14.924 83.3263 14.372C83.3263 13.652 83.4783 13.012 83.7823 12.452C84.0863 11.892 84.5023 11.452 85.0303 11.132C85.5583 10.804 86.1543 10.64 86.8183 10.64C87.3783 10.64 87.8623 10.748 88.2703 10.964C88.6783 11.172 88.9943 11.476 89.2183 11.876C89.4503 12.276 89.5663 12.756 89.5663 13.316C89.5663 13.444 89.5583 13.576 89.5423 13.712C89.5263 13.84 89.5063 13.964 89.4823 14.084H83.9503L84.0583 13.448H89.0863L88.7383 13.688C88.8183 13.184 88.7823 12.76 88.6303 12.416C88.4783 12.072 88.2423 11.812 87.9223 11.636C87.6103 11.452 87.2343 11.36 86.7943 11.36C86.2823 11.36 85.8263 11.488 85.4263 11.744C85.0263 11.992 84.7143 12.34 84.4903 12.788C84.2663 13.228 84.1543 13.744 84.1543 14.336C84.1543 14.968 84.3343 15.456 84.6943 15.8C85.0623 16.136 85.6103 16.304 86.3383 16.304C86.7623 16.304 87.1543 16.236 87.5143 16.1C87.8743 15.956 88.1703 15.76 88.4023 15.512L88.7863 16.124C88.4903 16.42 88.1183 16.652 87.6703 16.82C87.2303 16.98 86.7623 17.06 86.2663 17.06ZM93.2685 17.06C92.7165 17.06 92.2565 16.948 91.8885 16.724C91.5285 16.5 91.2805 16.18 91.1445 15.764C91.0085 15.348 90.9925 14.856 91.0965 14.288L91.8165 10.7H92.6685L91.9485 14.288C91.8285 14.912 91.8965 15.404 92.1525 15.764C92.4085 16.116 92.8565 16.292 93.4965 16.292C94.1605 16.292 94.7125 16.108 95.1525 15.74C95.6005 15.372 95.9005 14.82 96.0525 14.084L96.7245 10.7H97.5765L96.3165 17H95.5005L95.8605 15.188L96.0405 15.488C95.7445 16.032 95.3525 16.432 94.8645 16.688C94.3845 16.936 93.8525 17.06 93.2685 17.06ZM98.691 17L99.939 10.7H100.755L100.395 12.56L100.299 12.236C100.579 11.684 100.947 11.28 101.403 11.024C101.867 10.768 102.443 10.64 103.131 10.64L102.975 11.468C102.935 11.468 102.895 11.468 102.855 11.468C102.823 11.46 102.783 11.456 102.735 11.456C102.063 11.456 101.507 11.652 101.067 12.044C100.635 12.428 100.339 13.012 100.179 13.796L99.543 17H98.691ZM105.32 17.06C104.808 17.06 104.324 16.988 103.868 16.844C103.412 16.7 103.06 16.516 102.812 16.292L103.22 15.62C103.46 15.836 103.776 16.008 104.168 16.136C104.56 16.256 104.972 16.316 105.404 16.316C106.004 16.316 106.464 16.216 106.784 16.016C107.112 15.816 107.276 15.54 107.276 15.188C107.276 14.948 107.188 14.768 107.012 14.648C106.844 14.52 106.624 14.424 106.352 14.36C106.08 14.288 105.792 14.22 105.488 14.156C105.184 14.092 104.896 14.012 104.624 13.916C104.352 13.812 104.128 13.656 103.952 13.448C103.784 13.24 103.7 12.96 103.7 12.608C103.7 12.208 103.812 11.86 104.036 11.564C104.268 11.268 104.588 11.04 104.996 10.88C105.404 10.72 105.884 10.64 106.436 10.64C106.836 10.64 107.232 10.692 107.624 10.796C108.016 10.9 108.332 11.044 108.572 11.228L108.212 11.912C107.964 11.72 107.676 11.584 107.348 11.504C107.02 11.416 106.692 11.372 106.364 11.372C105.78 11.372 105.328 11.48 105.008 11.696C104.696 11.904 104.54 12.18 104.54 12.524C104.54 12.764 104.624 12.948 104.792 13.076C104.968 13.204 105.192 13.304 105.464 13.376C105.736 13.448 106.024 13.516 106.328 13.58C106.64 13.636 106.928 13.716 107.192 13.82C107.464 13.924 107.684 14.076 107.852 14.276C108.028 14.468 108.116 14.74 108.116 15.092C108.116 15.508 108 15.864 107.768 16.16C107.536 16.448 107.208 16.672 106.784 16.832C106.368 16.984 105.88 17.06 105.32 17.06ZM113.675 10.64C114.243 10.64 114.707 10.752 115.067 10.976C115.435 11.192 115.687 11.508 115.823 11.924C115.967 12.34 115.979 12.836 115.859 13.412L115.139 17H114.287L115.007 13.4C115.135 12.776 115.067 12.288 114.803 11.936C114.547 11.584 114.091 11.408 113.435 11.408C112.763 11.408 112.203 11.592 111.755 11.96C111.315 12.328 111.019 12.88 110.867 13.616L110.195 17H109.343L111.119 8.096H111.971L111.083 12.512L110.867 12.2C111.171 11.656 111.563 11.26 112.043 11.012C112.531 10.764 113.075 10.64 113.675 10.64ZM117.453 17L118.701 10.7H119.553L118.305 17H117.453ZM119.493 9.308C119.325 9.308 119.185 9.252 119.073 9.14C118.969 9.028 118.917 8.896 118.917 8.744C118.917 8.568 118.977 8.416 119.097 8.288C119.225 8.16 119.385 8.096 119.577 8.096C119.745 8.096 119.885 8.148 119.997 8.252C120.109 8.356 120.165 8.488 120.165 8.648C120.165 8.84 120.101 9 119.973 9.128C119.845 9.248 119.685 9.308 119.493 9.308ZM124.179 17.06C123.635 17.06 123.167 16.964 122.775 16.772C122.391 16.572 122.095 16.288 121.887 15.92C121.687 15.544 121.583 15.092 121.575 14.564C121.575 13.788 121.715 13.108 121.995 12.524C122.275 11.932 122.671 11.472 123.183 11.144C123.695 10.808 124.299 10.64 124.995 10.64C125.539 10.64 126.015 10.748 126.423 10.964C126.839 11.172 127.163 11.476 127.395 11.876C127.635 12.276 127.755 12.752 127.755 13.304C127.755 13.848 127.667 14.348 127.491 14.804C127.315 15.26 127.063 15.656 126.735 15.992C126.415 16.328 126.039 16.592 125.607 16.784C125.175 16.968 124.699 17.06 124.179 17.06ZM120.207 19.328L121.923 10.7H122.739L122.379 12.512L122.031 13.772L121.899 15.092L121.059 19.328H120.207ZM124.167 16.304C124.695 16.304 125.163 16.18 125.571 15.932C125.979 15.676 126.299 15.324 126.531 14.876C126.771 14.428 126.891 13.92 126.891 13.352C126.891 12.728 126.711 12.244 126.351 11.9C125.991 11.556 125.479 11.384 124.815 11.384C124.295 11.384 123.827 11.512 123.411 11.768C123.003 12.024 122.679 12.376 122.439 12.824C122.207 13.264 122.091 13.772 122.091 14.348C122.091 14.964 122.271 15.444 122.631 15.788C122.991 16.132 123.503 16.304 124.167 16.304ZM57.192 32.072C56.368 32.072 55.664 31.928 55.08 31.64C54.496 31.344 54.048 30.936 53.736 30.416C53.424 29.888 53.268 29.276 53.268 28.58C53.268 27.892 53.384 27.244 53.616 26.636C53.856 26.028 54.196 25.492 54.636 25.028C55.084 24.556 55.624 24.188 56.256 23.924C56.888 23.66 57.6 23.528 58.392 23.528C59.096 23.528 59.712 23.636 60.24 23.852C60.776 24.06 61.2 24.36 61.512 24.752L60.888 25.292C60.6 24.956 60.244 24.712 59.82 24.56C59.404 24.4 58.916 24.32 58.356 24.32C57.708 24.32 57.124 24.432 56.604 24.656C56.092 24.872 55.652 25.172 55.284 25.556C54.924 25.94 54.644 26.388 54.444 26.9C54.244 27.412 54.144 27.96 54.144 28.544C54.144 29.08 54.26 29.556 54.492 29.972C54.732 30.38 55.084 30.7 55.548 30.932C56.02 31.164 56.6 31.28 57.288 31.28C57.792 31.28 58.252 31.196 58.668 31.028C59.092 30.86 59.484 30.62 59.844 30.308L60.204 31.028C59.82 31.348 59.364 31.604 58.836 31.796C58.316 31.98 57.768 32.072 57.192 32.072ZM59.388 30.896L60 27.8H60.852L60.204 31.028L59.388 30.896ZM62.3453 32L63.5933 25.7H64.4093L64.0493 27.56L63.9533 27.236C64.2333 26.684 64.6013 26.28 65.0573 26.024C65.5213 25.768 66.0973 25.64 66.7853 25.64L66.6293 26.468C66.5893 26.468 66.5493 26.468 66.5093 26.468C66.4773 26.46 66.4373 26.456 66.3893 26.456C65.7173 26.456 65.1613 26.652 64.7213 27.044C64.2893 27.428 63.9933 28.012 63.8333 28.796L63.1973 32H62.3453ZM69.8173 32.06C69.2333 32.06 68.7253 31.952 68.2933 31.736C67.8693 31.512 67.5373 31.2 67.2973 30.8C67.0653 30.4 66.9493 29.928 66.9493 29.384C66.9493 28.664 67.1053 28.024 67.4173 27.464C67.7293 26.896 68.1613 26.452 68.7133 26.132C69.2653 25.804 69.8933 25.64 70.5973 25.64C71.1813 25.64 71.6853 25.748 72.1093 25.964C72.5413 26.18 72.8733 26.488 73.1053 26.888C73.3453 27.288 73.4653 27.76 73.4653 28.304C73.4653 29.024 73.3093 29.668 72.9973 30.236C72.6853 30.796 72.2533 31.24 71.7013 31.568C71.1573 31.896 70.5293 32.06 69.8173 32.06ZM69.8773 31.304C70.4053 31.304 70.8733 31.18 71.2813 30.932C71.6973 30.676 72.0213 30.324 72.2533 29.876C72.4933 29.428 72.6133 28.92 72.6133 28.352C72.6133 27.728 72.4293 27.244 72.0613 26.9C71.7013 26.556 71.1933 26.384 70.5373 26.384C70.0173 26.384 69.5493 26.512 69.1333 26.768C68.7173 27.024 68.3893 27.376 68.1493 27.824C67.9173 28.264 67.8013 28.772 67.8013 29.348C67.8013 29.964 67.9813 30.444 68.3413 30.788C68.7093 31.132 69.2213 31.304 69.8773 31.304ZM75.713 32L74.477 25.7H75.257L76.373 31.544H75.989L79.325 25.7H80.045L81.197 31.544H80.813L84.101 25.7H84.929L81.365 32H80.537L79.409 26.504H79.673L76.529 32H75.713ZM87.0836 32.06C86.7236 32.06 86.4156 31.984 86.1596 31.832C85.9036 31.672 85.7236 31.448 85.6196 31.16C85.5236 30.872 85.5156 30.528 85.5956 30.128L86.7476 24.308H87.5996L86.4476 30.092C86.3676 30.484 86.3956 30.788 86.5316 31.004C86.6756 31.22 86.9356 31.328 87.3116 31.328C87.4876 31.328 87.6596 31.304 87.8276 31.256C87.9956 31.2 88.1476 31.116 88.2836 31.004L88.4876 31.652C88.2876 31.804 88.0636 31.912 87.8156 31.976C87.5676 32.032 87.3236 32.06 87.0836 32.06ZM85.2116 26.408L85.3436 25.7H89.2436L89.0996 26.408H85.2116ZM94.2866 25.64C94.8546 25.64 95.3186 25.752 95.6786 25.976C96.0466 26.192 96.2986 26.508 96.4346 26.924C96.5786 27.34 96.5906 27.836 96.4706 28.412L95.7506 32H94.8986L95.6186 28.4C95.7466 27.776 95.6786 27.288 95.4146 26.936C95.1586 26.584 94.7026 26.408 94.0466 26.408C93.3746 26.408 92.8146 26.592 92.3666 26.96C91.9266 27.328 91.6306 27.88 91.4786 28.616L90.8066 32H89.9546L91.7306 23.096H92.5826L91.6946 27.512L91.4786 27.2C91.7826 26.656 92.1746 26.26 92.6546 26.012C93.1426 25.764 93.6866 25.64 94.2866 25.64Z" fill="white"/>
<line x1="166.5" y1="-2.18557e-08" x2="166.5" y2="509" stroke="white"/>
<line x1="740" y1="509.5" x2="166" y2="509.5" stroke="white"/>
<path d="M222 404C656.208 404 285.495 22.0018 665 32.2006" stroke="white" stroke-width="4"/>
</svg>
