<svg xmlns="http://www.w3.org/2000/svg" xmlns:xlink="http://www.w3.org/1999/xlink" width="1000" zoomAndPan="magnify" viewBox="0 0 750 749.999995" height="1000" preserveAspectRatio="xMidYMid meet" version="1.0"><defs><clipPath id="7fe3afefdb"><path d="M 0 20.625 L 750 20.625 L 750 729.375 L 0 729.375 Z M 0 20.625 " clip-rule="nonzero"/></clipPath></defs><g clip-path="url(#7fe3afefdb)"><path fill="#004aad" d="M 15.640625 729.101562 L 744.839844 723.351562 C 747.6875 723.328125 749.992188 720.171875 749.992188 716.277344 L 749.992188 589.09375 C 749.992188 585.183594 747.671875 582.015625 744.808594 582.015625 L 625.90625 582.015625 L 625.90625 581.632812 L 251.082031 581.632812 C 243.714844 579.859375 238.03125 571.601562 237.164062 561.320312 L 305.042969 428.074219 L 308.195312 422.226562 L 400.144531 251.726562 C 402.664062 247.058594 400.226562 240.449219 395.976562 240.449219 L 265.765625 240.449219 C 264.121094 240.449219 262.578125 241.519531 261.601562 243.320312 L 234.558594 293.363281 L 8.953125 711.117188 C 4.894531 718.621094 8.851562 729.191406 15.640625 729.101562 Z M 741.046875 38.804688 L 515.445312 456.558594 L 488.398438 506.59375 C 487.421875 508.410156 485.875 509.472656 484.230469 509.472656 L 354.019531 509.472656 C 349.773438 509.472656 347.335938 502.863281 349.855469 498.195312 L 441.808594 327.695312 L 444.957031 321.847656 L 512.835938 188.601562 C 511.96875 178.320312 506.289062 170.0625 498.917969 168.289062 L 124.09375 168.289062 L 124.09375 167.90625 L 5.1875 167.90625 C 2.328125 167.90625 0.0117188 164.730469 0.0117188 160.828125 L 0.0117188 33.644531 C 0.0117188 29.75 2.3125 26.59375 5.15625 26.570312 L 734.363281 20.820312 C 741.148438 20.730469 745.105469 31.300781 741.046875 38.804688 " fill-opacity="1" fill-rule="nonzero"/></g></svg>